<mxfile host="app.diagrams.net" modified="2020-07-17T20:46:30.042Z" agent="5.0 (Macintosh; Intel Mac OS X 10_15_4) AppleWebKit/537.36 (KHTML, like Gecko) Chrome/83.0.4103.116 Safari/537.36" etag="2C65QbnGZK8gsVXiKeJE" version="13.4.6" type="github">
  <diagram id="C5RBs43oDa-KdzZeNtuy" name="Page-1">
    <mxGraphModel dx="2166" dy="1337" grid="1" gridSize="10" guides="1" tooltips="1" connect="1" arrows="1" fold="1" page="1" pageScale="1" pageWidth="850" pageHeight="1100" math="0" shadow="0">
      <root>
        <mxCell id="WIyWlLk6GJQsqaUBKTNV-0" />
        <mxCell id="WIyWlLk6GJQsqaUBKTNV-1" parent="WIyWlLk6GJQsqaUBKTNV-0" />
        <mxCell id="WIyWlLk6GJQsqaUBKTNV-3" value="AMPS admin decommissions unit" style="rounded=0;whiteSpace=wrap;html=1;fontSize=12;glass=0;strokeWidth=1;shadow=0;fillColor=#dae8fc;strokeColor=#6c8ebf;" parent="WIyWlLk6GJQsqaUBKTNV-1" vertex="1">
          <mxGeometry x="235" y="210" width="120" height="40" as="geometry" />
        </mxCell>
        <mxCell id="X3GcQL-NPRju56YZY_Ri-5" value="" style="endArrow=classic;html=1;" parent="WIyWlLk6GJQsqaUBKTNV-1" edge="1">
          <mxGeometry width="50" height="50" relative="1" as="geometry">
            <mxPoint x="294.71000000000004" y="250" as="sourcePoint" />
            <mxPoint x="294.71000000000004" y="300" as="targetPoint" />
          </mxGeometry>
        </mxCell>
        <mxCell id="MRGtH3ut4B2zLl-mFBzY-0" value="Business Process" style="rounded=0;whiteSpace=wrap;html=1;fillColor=#dae8fc;strokeColor=#6c8ebf;" parent="WIyWlLk6GJQsqaUBKTNV-1" vertex="1">
          <mxGeometry x="20" y="20" width="120" height="60" as="geometry" />
        </mxCell>
        <mxCell id="MRGtH3ut4B2zLl-mFBzY-1" value="Technical Process" style="rounded=0;whiteSpace=wrap;html=1;fillColor=#d5e8d4;strokeColor=#82b366;" parent="WIyWlLk6GJQsqaUBKTNV-1" vertex="1">
          <mxGeometry x="20" y="100" width="120" height="60" as="geometry" />
        </mxCell>
        <mxCell id="MRGtH3ut4B2zLl-mFBzY-2" value="" style="ellipse;whiteSpace=wrap;html=1;aspect=fixed;fillColor=#ffe6cc;strokeColor=#d79b00;" parent="WIyWlLk6GJQsqaUBKTNV-1" vertex="1">
          <mxGeometry x="200" y="40" width="30" height="30" as="geometry" />
        </mxCell>
        <mxCell id="MRGtH3ut4B2zLl-mFBzY-3" value="Trigger" style="text;html=1;strokeColor=#d79b00;fillColor=#ffe6cc;align=center;verticalAlign=middle;whiteSpace=wrap;rounded=0;" parent="WIyWlLk6GJQsqaUBKTNV-1" vertex="1">
          <mxGeometry x="250" y="45" width="40" height="20" as="geometry" />
        </mxCell>
        <mxCell id="MRGtH3ut4B2zLl-mFBzY-4" value="" style="rhombus;whiteSpace=wrap;html=1;align=left;fillColor=#f8cecc;strokeColor=#b85450;" parent="WIyWlLk6GJQsqaUBKTNV-1" vertex="1">
          <mxGeometry x="200" y="90" width="30" height="30" as="geometry" />
        </mxCell>
        <mxCell id="MRGtH3ut4B2zLl-mFBzY-5" value="Stored Procedure" style="text;html=1;strokeColor=#b85450;fillColor=#f8cecc;align=center;verticalAlign=middle;whiteSpace=wrap;rounded=0;" parent="WIyWlLk6GJQsqaUBKTNV-1" vertex="1">
          <mxGeometry x="240" y="95" width="120" height="20" as="geometry" />
        </mxCell>
        <mxCell id="MRGtH3ut4B2zLl-mFBzY-8" value="" style="edgeStyle=orthogonalEdgeStyle;rounded=0;orthogonalLoop=1;jettySize=auto;html=1;entryX=0.5;entryY=0;entryDx=0;entryDy=0;" parent="WIyWlLk6GJQsqaUBKTNV-1" target="MRGtH3ut4B2zLl-mFBzY-9" edge="1">
          <mxGeometry relative="1" as="geometry">
            <mxPoint x="295" y="400" as="sourcePoint" />
          </mxGeometry>
        </mxCell>
        <mxCell id="MRGtH3ut4B2zLl-mFBzY-13" value="" style="edgeStyle=orthogonalEdgeStyle;rounded=0;orthogonalLoop=1;jettySize=auto;html=1;exitX=0.5;exitY=1;exitDx=0;exitDy=0;entryX=0;entryY=0.5;entryDx=0;entryDy=0;" parent="WIyWlLk6GJQsqaUBKTNV-1" source="MRGtH3ut4B2zLl-mFBzY-7" edge="1" target="wBC0IcQCy2k8Cki3I0yd-3">
          <mxGeometry relative="1" as="geometry">
            <mxPoint x="280" y="660" as="targetPoint" />
            <Array as="points">
              <mxPoint x="245" y="660" />
            </Array>
          </mxGeometry>
        </mxCell>
        <mxCell id="MRGtH3ut4B2zLl-mFBzY-7" value="Yes" style="rounded=0;whiteSpace=wrap;html=1;fillColor=#dae8fc;strokeColor=#6c8ebf;" parent="WIyWlLk6GJQsqaUBKTNV-1" vertex="1">
          <mxGeometry x="220" y="455" width="50" height="30" as="geometry" />
        </mxCell>
        <mxCell id="MRGtH3ut4B2zLl-mFBzY-15" value="" style="edgeStyle=orthogonalEdgeStyle;rounded=0;orthogonalLoop=1;jettySize=auto;html=1;exitX=1;exitY=0.5;exitDx=0;exitDy=0;entryX=0;entryY=0.5;entryDx=0;entryDy=0;entryPerimeter=0;" parent="WIyWlLk6GJQsqaUBKTNV-1" source="MRGtH3ut4B2zLl-mFBzY-9" edge="1" target="wBC0IcQCy2k8Cki3I0yd-1">
          <mxGeometry relative="1" as="geometry">
            <mxPoint x="430" y="470" as="targetPoint" />
          </mxGeometry>
        </mxCell>
        <mxCell id="MRGtH3ut4B2zLl-mFBzY-9" value="No" style="rounded=0;whiteSpace=wrap;html=1;fillColor=#dae8fc;strokeColor=#6c8ebf;" parent="WIyWlLk6GJQsqaUBKTNV-1" vertex="1">
          <mxGeometry x="320" y="455" width="50" height="30" as="geometry" />
        </mxCell>
        <mxCell id="MRGtH3ut4B2zLl-mFBzY-11" value="" style="edgeStyle=orthogonalEdgeStyle;rounded=0;orthogonalLoop=1;jettySize=auto;html=1;entryX=0.5;entryY=0;entryDx=0;entryDy=0;exitX=0.5;exitY=1;exitDx=0;exitDy=0;" parent="WIyWlLk6GJQsqaUBKTNV-1" source="wBC0IcQCy2k8Cki3I0yd-0" target="MRGtH3ut4B2zLl-mFBzY-7" edge="1">
          <mxGeometry relative="1" as="geometry">
            <mxPoint x="295" y="400" as="sourcePoint" />
            <mxPoint x="355" y="465" as="targetPoint" />
            <Array as="points">
              <mxPoint x="295" y="400" />
              <mxPoint x="245" y="400" />
            </Array>
          </mxGeometry>
        </mxCell>
        <mxCell id="MRGtH3ut4B2zLl-mFBzY-18" value="" style="rhombus;whiteSpace=wrap;html=1;align=left;fillColor=#f8cecc;strokeColor=#b85450;" parent="WIyWlLk6GJQsqaUBKTNV-1" vertex="1">
          <mxGeometry x="230" y="550" width="30" height="30" as="geometry" />
        </mxCell>
        <mxCell id="MRGtH3ut4B2zLl-mFBzY-19" value="trg_unit_decommissioned" style="text;html=1;strokeColor=#b85450;fillColor=#f8cecc;align=center;verticalAlign=middle;whiteSpace=wrap;rounded=0;" parent="WIyWlLk6GJQsqaUBKTNV-1" vertex="1">
          <mxGeometry x="40" y="550" width="170" height="20" as="geometry" />
        </mxCell>
        <mxCell id="wBC0IcQCy2k8Cki3I0yd-0" value="Does unit exist in tbl_ref_unit?" style="rounded=0;whiteSpace=wrap;html=1;fillColor=#dae8fc;strokeColor=#6c8ebf;" parent="WIyWlLk6GJQsqaUBKTNV-1" vertex="1">
          <mxGeometry x="235" y="300" width="120" height="60" as="geometry" />
        </mxCell>
        <mxCell id="wBC0IcQCy2k8Cki3I0yd-1" value="Do Nothing" style="whiteSpace=wrap;html=1;shape=mxgraph.basic.octagon2;align=center;verticalAlign=middle;dx=15;fillColor=#f8cecc;strokeColor=#b85450;" parent="WIyWlLk6GJQsqaUBKTNV-1" vertex="1">
          <mxGeometry x="500" y="425" width="90" height="90" as="geometry" />
        </mxCell>
        <mxCell id="wBC0IcQCy2k8Cki3I0yd-3" value="Does the unit exist in tbl_unit_sla_season?&lt;br&gt;" style="rounded=0;whiteSpace=wrap;html=1;fillColor=#dae8fc;strokeColor=#6c8ebf;" parent="WIyWlLk6GJQsqaUBKTNV-1" vertex="1">
          <mxGeometry x="280" y="630" width="150" height="60" as="geometry" />
        </mxCell>
        <mxCell id="wBC0IcQCy2k8Cki3I0yd-4" value="" style="endArrow=classic;html=1;rounded=0;edgeStyle=orthogonalEdgeStyle;entryX=0;entryY=0.5;entryDx=0;entryDy=0;" parent="WIyWlLk6GJQsqaUBKTNV-1" source="wBC0IcQCy2k8Cki3I0yd-3" target="wBC0IcQCy2k8Cki3I0yd-7" edge="1">
          <mxGeometry width="50" height="50" relative="1" as="geometry">
            <mxPoint x="430" y="660" as="sourcePoint" />
            <mxPoint x="590" y="720" as="targetPoint" />
            <Array as="points">
              <mxPoint x="480" y="660" />
              <mxPoint x="480" y="720" />
            </Array>
          </mxGeometry>
        </mxCell>
        <mxCell id="wBC0IcQCy2k8Cki3I0yd-5" value="" style="endArrow=classic;html=1;edgeStyle=orthogonalEdgeStyle;rounded=0;entryX=0;entryY=0.5;entryDx=0;entryDy=0;" parent="WIyWlLk6GJQsqaUBKTNV-1" target="wBC0IcQCy2k8Cki3I0yd-6" edge="1">
          <mxGeometry width="50" height="50" relative="1" as="geometry">
            <mxPoint x="480" y="660" as="sourcePoint" />
            <mxPoint x="590" y="600" as="targetPoint" />
            <Array as="points">
              <mxPoint x="480" y="600" />
            </Array>
          </mxGeometry>
        </mxCell>
        <mxCell id="pCMEsx3_8Je4IrAWFXmV-1" style="edgeStyle=orthogonalEdgeStyle;rounded=0;orthogonalLoop=1;jettySize=auto;html=1;entryX=0;entryY=0.5;entryDx=0;entryDy=0;" edge="1" parent="WIyWlLk6GJQsqaUBKTNV-1" source="wBC0IcQCy2k8Cki3I0yd-6" target="pCMEsx3_8Je4IrAWFXmV-0">
          <mxGeometry relative="1" as="geometry" />
        </mxCell>
        <mxCell id="wBC0IcQCy2k8Cki3I0yd-6" value="Yes" style="rounded=0;whiteSpace=wrap;html=1;fillColor=#dae8fc;strokeColor=#6c8ebf;" parent="WIyWlLk6GJQsqaUBKTNV-1" vertex="1">
          <mxGeometry x="526" y="580" width="50" height="40" as="geometry" />
        </mxCell>
        <mxCell id="wBC0IcQCy2k8Cki3I0yd-7" value="No" style="rounded=0;whiteSpace=wrap;html=1;fillColor=#dae8fc;strokeColor=#6c8ebf;" parent="WIyWlLk6GJQsqaUBKTNV-1" vertex="1">
          <mxGeometry x="526" y="700" width="50" height="40" as="geometry" />
        </mxCell>
        <mxCell id="wBC0IcQCy2k8Cki3I0yd-8" value="Do Nothing" style="whiteSpace=wrap;html=1;shape=mxgraph.basic.octagon2;align=center;verticalAlign=middle;dx=15;fillColor=#f8cecc;strokeColor=#b85450;" parent="WIyWlLk6GJQsqaUBKTNV-1" vertex="1">
          <mxGeometry x="505" y="820" width="92" height="90" as="geometry" />
        </mxCell>
        <mxCell id="wBC0IcQCy2k8Cki3I0yd-9" value="" style="endArrow=classic;html=1;rounded=0;entryX=0.5;entryY=0;entryDx=0;entryDy=0;entryPerimeter=0;" parent="WIyWlLk6GJQsqaUBKTNV-1" source="wBC0IcQCy2k8Cki3I0yd-7" target="wBC0IcQCy2k8Cki3I0yd-8" edge="1">
          <mxGeometry width="50" height="50" relative="1" as="geometry">
            <mxPoint x="614.66" y="740" as="sourcePoint" />
            <mxPoint x="614.66" y="780" as="targetPoint" />
          </mxGeometry>
        </mxCell>
        <mxCell id="pCMEsx3_8Je4IrAWFXmV-0" value="&lt;div style=&quot;text-align: left&quot;&gt;&lt;b&gt;Update:&lt;/b&gt;&lt;/div&gt;&lt;div style=&quot;text-align: left&quot;&gt;Set effective = 0&lt;/div&gt;&lt;div style=&quot;text-align: left&quot;&gt;Set effective_to date to the next upcoming Saturday&#39;s date&lt;/div&gt;" style="rounded=0;whiteSpace=wrap;html=1;fillColor=#d5e8d4;strokeColor=#82b366;" vertex="1" parent="WIyWlLk6GJQsqaUBKTNV-1">
          <mxGeometry x="650" y="560" width="160" height="80" as="geometry" />
        </mxCell>
        <mxCell id="pCMEsx3_8Je4IrAWFXmV-2" value="&lt;span id=&quot;docs-internal-guid-cab402d8-7fff-18fc-b851-d093ed2a1515&quot;&gt;&lt;span style=&quot;font-family: &amp;#34;arial&amp;#34; ; background-color: transparent ; vertical-align: baseline&quot;&gt;&lt;font style=&quot;font-size: 12px&quot;&gt;&lt;i&gt;“No” if unit is in an AMPS class that is not used for Daily Tasks Fixed or Mobile Crew modules&lt;/i&gt;&lt;/font&gt;&lt;/span&gt;&lt;/span&gt;" style="rounded=0;whiteSpace=wrap;html=1;fillColor=none;" vertex="1" parent="WIyWlLk6GJQsqaUBKTNV-1">
          <mxGeometry x="355" y="490" width="140" height="70" as="geometry" />
        </mxCell>
        <mxCell id="pCMEsx3_8Je4IrAWFXmV-3" value="&lt;span id=&quot;docs-internal-guid-5fe48b0e-7fff-a765-be8b-5b3e4f1d802c&quot;&gt;&lt;span style=&quot;font-family: &amp;quot;arial&amp;quot; ; background-color: transparent ; vertical-align: baseline&quot;&gt;&lt;font style=&quot;font-size: 12px&quot;&gt;“No” if unit is added to tbl_ref_unit and was never assigned an SLA&lt;/font&gt;&lt;/span&gt;&lt;/span&gt;" style="rounded=0;whiteSpace=wrap;html=1;fillColor=none;fontStyle=2" vertex="1" parent="WIyWlLk6GJQsqaUBKTNV-1">
          <mxGeometry x="590" y="750" width="120" height="60" as="geometry" />
        </mxCell>
      </root>
    </mxGraphModel>
  </diagram>
</mxfile>
